{
  "accessors": [
    {
      "bufferView": 0,
      "componentType": 5125,
      "count": 2916,
      "type": "SCALAR"
    },
    {
      "bufferView": 1,
      "componentType": 5126,
      "count": 821,
      "max": [
        27.5408020019531,
        175.909301757813,
        10.0612125396729
      ],
      "min": [
        -27.5408020019531,
        7.62939453125e-06,
        -23.912015914917
      ],
      "type": "VEC3"
    },
    {
      "bufferView": 2,
      "componentType": 5126,
      "count": 821,
      "type": "VEC3"
    },
    {
      "bufferView": 3,
      "componentType": 5126,
      "count": 821,
      "type": "VEC2"
    }
  ],
  "asset": {
    "generator": "Substance Painter 6.1.0",
    "version": "2.0"
  },
  "bufferViews": [
    {
      "buffer": 0,
      "byteLength": 11664,
      "target": 34963
    },
    {
      "buffer": 0,
      "byteLength": 9852,
      "byteOffset": 11664,
      "target": 34962
    },
    {
      "buffer": 0,
      "byteLength": 9852,
      "byteOffset": 21516,
      "target": 34962
    },
    {
      "buffer": 0,
      "byteLength": 6568,
      "byteOffset": 31368,
      "target": 34962
    }
  ],
  "buffers": [
    {
      "byteLength": 37936,
      "uri": "Charger.bin"
    }
  ],
  "images": [
    {
      "uri": "Charger_baseColor.png"
    },
    {
      "uri": "Charger_occlusionRoughnessMetallic.png"
    },
    {
      "uri": "Charger_normal.png"
    }
  ],
  "materials": [
    {
      "alphaMode": "OPAQUE",
      "name": "Charger",
      "normalTexture": {
        "index": 2
      },
      "occlusionTexture": {
        "index": 1
      },
      "pbrMetallicRoughness": {
        "baseColorTexture": {
          "index": 0
        },
        "metallicRoughnessTexture": {
          "index": 1
        }
      }
    }
  ],
  "meshes": [
    {
      "name": "Charger",
      "primitives": [
        {
          "attributes": {
            "NORMAL": 2,
            "POSITION": 1,
            "TEXCOORD_0": 3
          },
          "indices": 0,
          "material": 0,
          "mode": 4
        }
      ]
    }
  ],
  "nodes": [
    {
      "children": [
        1
      ],
      "name": "RootNode"
    },
    {
      "children": [
        2
      ],
      "name": "Charger"
    },
    {
      "mesh": 0,
      "name": "Charger"
    }
  ],
  "samplers": [
    {
      "magFilter": 9729,
      "minFilter": 9985,
      "wrapS": 10497,
      "wrapT": 10497
    }
  ],
  "scene": 0,
  "scenes": [
    {
      "name": "Scene",
      "nodes": [
        0
      ]
    }
  ],
  "textures": [
    {
      "sampler": 0,
      "source": 0
    },
    {
      "sampler": 0,
      "source": 1
    },
    {
      "sampler": 0,
      "source": 2
    }
  ]
}